#N canvas 69 278 268 443 12;
#X declare -lib zexy;
#N canvas 48 90 1318 678 msg 0;
#X obj 256 241 outlet;
#X msg 251 97 finaliza;
#X obj 15 45 bng 19 250 50 0 empty empty Inicia 22 9 0 12 -262144 -1
-1;
#X obj 14 68 bng 19 250 50 0 empty empty Finaliza 22 9 0 12 -262144
-1 -1;
#X msg 256 73 inicia;
#X obj 15 16 bng 15 250 50 0 empty empty ON 18 8 0 12 -4034 -1 -1;
#X msg 297 38 liga;
#X obj 48 16 bng 15 250 50 0 empty empty OFF 18 8 0 12 -258113 -1 -1
;
#X msg 352 79 desliga;
#X obj 15 94 bng 18 250 50 1 empty empty Senoidal 20 9 0 12 -257985
-1 -1;
#X obj 15 114 bng 18 250 50 0 empty empty Quadrada 20 9 0 12 -257985
-1 -1;
#X obj 15 154 bng 18 250 50 0 empty empty Dente-de-serra 20 9 0 12
-257985 -1 -1;
#X obj 15 134 bng 18 250 50 0 empty empty Triangular 20 9 0 12 -257985
-1 -1;
#X msg 254 369 onda \$1;
#X msg 265 294 s quadrada;
#X msg 254 269 s senoidal;
#X msg 277 319 s triangular;
#X msg 287 344 s dente-de-serra;
#X floatatom 95 45 5 50 5000 1 Ataque - -;
#X msg 332 156 ataque \$1;
#X msg 336 192 decaimento \$1;
#X floatatom 95 67 5 50 5000 1 Decaimento - -;
#X obj 576 99 loadbang;
#X obj 575 177 ofGetDspState;
#X obj 686 95 sel;
#X obj 703 221 route dsp;
#X obj 703 192 r pd;
#X obj 622 64 r icsm_dsp;
#X obj 704 64 r icsm_dsp_sel;
#X obj 575 123 del 1;
#X msg 575 212 \; icsm_dsp_sel \$1 \; icsm_dsp \$1;
#X msg 703 246 \; icsm_dsp \$1;
#X msg 704 125 \; icsm_dsp_sel \$1 \; pd dsp \$1 \; start bang;
#X text 625 146 DSP ON/OFF;
#X obj 171 14 tgl 15 0 empty empty DSP 17 8 0 10 -262144 -1 -1 0 1
;
#X connect 1 0 0 0;
#X connect 2 0 4 0;
#X connect 3 0 1 0;
#X connect 4 0 0 0;
#X connect 5 0 6 0;
#X connect 6 0 0 0;
#X connect 7 0 8 0;
#X connect 8 0 0 0;
#X connect 9 0 15 0;
#X connect 10 0 14 0;
#X connect 11 0 17 0;
#X connect 12 0 16 0;
#X connect 13 0 0 0;
#X connect 14 0 13 0;
#X connect 15 0 13 0;
#X connect 16 0 13 0;
#X connect 17 0 13 0;
#X connect 18 0 19 0;
#X connect 19 0 0 0;
#X connect 20 0 0 0;
#X connect 21 0 20 0;
#X connect 22 0 29 0;
#X connect 23 0 30 0;
#X connect 24 1 32 0;
#X connect 25 0 31 0;
#X connect 26 0 25 0;
#X connect 28 0 24 1;
#X connect 29 0 23 0;
#X connect 34 0 24 0;
#X coords 0 -1 1 1 200 170 2 10 10;
#X restore 31 39 pd msg;
#N canvas 525 250 450 300 midi 0;
#X obj 86 161 outlet~;
#X obj 44 7 notein;
#X floatatom 16 52 5 0 0 0 - - -;
#X floatatom 86 52 5 0 0 0 - - -;
#X obj 94 105 pack 0 30;
#X obj 16 131 outlet~;
#X obj 16 105 line~;
#X obj 16 76 pack 0 30;
#X obj 86 76 / 127;
#X obj 86 135 line~;
#X connect 1 0 2 0;
#X connect 1 1 3 0;
#X connect 2 0 7 0;
#X connect 3 0 8 0;
#X connect 4 0 9 0;
#X connect 6 0 5 0;
#X connect 7 0 6 0;
#X connect 8 0 4 0;
#X connect 9 0 0 0;
#X restore 58 327 pd midi;
#N canvas 48 96 1318 672 synth 0;
#X obj 826 368 outlet~;
#X obj 451 82 inlet;
#X obj 538 418 inlet~;
#X obj 454 475 inlet~;
#X obj 1100 235 snapshot~;
#X obj 1100 160 line~;
#X floatatom 457 677 5 0 1 3 Volume_interno - -;
#X obj 1110 208 metro 100;
#X obj 1110 183 r start;
#X msg 1128 134 stop;
#X obj 373 175 route inicia;
#X obj 553 46 route finaliza;
#X msg 1014 77 1;
#X msg 1091 77 0;
#X obj 1021 102 pack 1 50;
#X obj 1091 103 pack 0 50;
#X obj 355 32 route liga;
#X msg 19 42 1;
#X obj 417 -33 route desliga;
#X msg 51 42 0;
#X obj 283 303 route senoidal;
#X obj 538 107 route onda;
#X obj 388 303 route quadrada;
#X obj 494 303 route triangular;
#X obj 614 303 route dente-de-serra;
#X msg 360 339 0;
#X msg 459 338 1;
#X msg 537 338 2;
#X msg 622 338 3;
#X obj 498 166 route ataque;
#X obj 293 99 route decaimento;
#X obj 527 -13 route notas;
#X obj -102 286 list split 2;
#X obj -185 305 list append;
#X obj -23 380 del;
#X obj -96 324 unpack f f;
#X obj -85 381 osc~;
#X obj 414 475 osc~;
#X obj 539 442 mtof~;
#X obj 423 500 *~;
#X obj -8 111 declare -lib zexy;
#X obj 378 627 multiplex~ 0 1 2 3;
#X obj 512 563 sgn~;
#X obj 512 504 *~ 2;
#X obj 512 534 -~ 1;
#X obj 512 475 phasor~;
#X obj 431 523 *~;
#X obj 461 523 *~;
#X obj -129 510 sgn~;
#X obj -95 448 *~ 2;
#X obj -95 478 -~ 1;
#X obj -95 419 phasor~;
#X obj 595 509 phasor~;
#X obj -171 343 mtof;
#X obj 436 555 *~;
#X obj 596 549 -~ 0.5;
#X obj 595 576 abs~;
#X obj 595 601 *~ 4;
#X obj 595 626 -~ 1;
#X obj -65 537 multiplex~ 0 1 2 3;
#X obj 376 664 *~;
#X obj -64 566 *~;
#X obj -197 381 phasor~;
#X obj -176 409 -~ 0.5;
#X obj -177 436 abs~;
#X obj -177 461 *~ 4;
#X obj -177 486 -~ 1;
#X obj 23 71 switch~;
#X text 12 -20 Ambiente Liga/Desliga;
#X obj 952 232 snapshot~;
#X obj 952 157 line~;
#X floatatom 37 415 5 0 1 3 Volume_interno_seq - -;
#X obj 952 204 metro 100;
#X obj 962 180 r start;
#X msg 980 131 stop;
#X msg 866 74 1;
#X msg 943 74 0;
#X obj 867 110 pack 1 50;
#X obj 940 101 pack 0 50;
#X obj 94 48 t b;
#X obj 1133 75 s \$0_decaimento;
#X obj 37 363 s \$0_bang_delay;
#X obj 924 254 s \$0_bang_snap_seq;
#X obj 37 387 r \$0_bang_snap_seq;
#X obj 1066 4 r \$0_bang_delay;
#X obj 360 362 s \$0_senoidal;
#X obj 459 362 s \$0_quadr;
#X obj 537 362 s \$0_triang;
#X obj 622 362 s \$0_dente;
#X obj -186 536 r \$0_senoidal;
#X obj -186 560 r \$0_quadr;
#X obj -185 583 r \$0_triang;
#X obj -185 606 r \$0_dente;
#X obj 94 72 s \$0_bang_liga;
#X obj 305 270 r \$0_bang_liga;
#X obj 374 198 s \$0_bang_inicia;
#X obj 1059 -21 r \$0_bang_inicia;
#X obj 553 71 s \$0_bang_finaliza;
#X obj 1116 30 r \$0_bang_finaliza;
#X obj 293 124 s \$0_bang_decaimento;
#X obj 1117 52 r \$0_bang_decaimento;
#X obj 538 134 s \$0_bang_onda;
#X obj 422 272 r \$0_bang_onda;
#X obj -97 257 s \$0_bang_notast;
#X obj 821 -21 r \$0_bang_notast;
#X obj 527 12 s \$0_bang_notas;
#X obj -102 232 r \$0_bang_notas;
#X obj 498 191 s \$0_bang_ataque;
#X obj 941 -21 r \$0_bang_ataque;
#X obj 1083 257 s \$0_bang_snap;
#X obj 427 654 r \$0_bang_snap;
#X obj 302 524 r \$0_senoidal;
#X obj 302 548 r \$0_quadr;
#X obj 303 571 r \$0_triang;
#X obj 303 594 r \$0_dente;
#X obj 355 55 s 0$_liga;
#X obj 417 -7 s 0$_desliga;
#X obj 10 2 r 0$_liga;
#X obj 84 5 r 0$_desliga;
#X obj -64 594 s~ 0$_sinal_seq;
#X obj 827 314 r~ 0$_sinal_seq;
#X obj 393 717 s~ 0$_sinal_livre;
#X obj 833 338 r~ 0$_sinal_livre;
#X text -104 211 Ambiente Sequenciador;
#X text 304 12 Ambiente Mensagens;
#X text 548 270 Ambiente Timbre;
#X text 999 -40 Ambiente Fade In/Out;
#X text 345 428 Ambiente Síntese Livre;
#X obj 1184 -22 r 0$_liga;
#X text -23 128 _________________________________;
#X text -23 -41 _________________________________;
#X text 204 128 |;
#X text 204 116 |;
#X text 204 104 |;
#X text 204 92 |;
#X text 204 80 |;
#X text 204 68 |;
#X text 204 56 |;
#X text 204 44 |;
#X text 204 32 |;
#X text 204 20 |;
#X text 204 8 |;
#X text 204 -4 |;
#X text 204 -16 |;
#X text 204 -28 |;
#X text -26 116 |;
#X text -26 104 |;
#X text -26 92 |;
#X text -26 80 |;
#X text -26 68 |;
#X text -26 56 |;
#X text -26 44 |;
#X text -26 32 |;
#X text -26 20 |;
#X text -26 8 |;
#X text -26 -4 |;
#X text -26 -16 |;
#X text -26 -28 |;
#X text -26 128 |;
#X text 685 107 |;
#X text 685 95 |;
#X text 685 83 |;
#X text 685 71 |;
#X text 685 59 |;
#X text 685 47 |;
#X text 685 35 |;
#X text 685 23 |;
#X text 685 11 |;
#X text 685 -1 |;
#X text 685 -13 |;
#X text 685 -25 |;
#X text 685 -37 |;
#X text 685 -49 |;
#X text 685 215 |;
#X text 685 203 |;
#X text 685 191 |;
#X text 685 179 |;
#X text 685 167 |;
#X text 685 155 |;
#X text 685 143 |;
#X text 685 131 |;
#X text 685 119 |;
#X text 283 -62 __________________________________________________________
;
#X text 283 215 __________________________________________________________
;
#X text 280 107 |;
#X text 280 95 |;
#X text 280 83 |;
#X text 280 71 |;
#X text 280 59 |;
#X text 280 47 |;
#X text 280 35 |;
#X text 280 23 |;
#X text 280 11 |;
#X text 280 -1 |;
#X text 280 -13 |;
#X text 280 -25 |;
#X text 280 -37 |;
#X text 280 -49 |;
#X text 280 215 |;
#X text 280 203 |;
#X text 280 191 |;
#X text 280 179 |;
#X text 280 167 |;
#X text 280 155 |;
#X text 280 143 |;
#X text 280 131 |;
#X text 280 119 |;
#X text 652 561 |;
#X text 652 549 |;
#X text 652 537 |;
#X text 652 525 |;
#X text 652 513 |;
#X text 652 501 |;
#X text 652 489 |;
#X text 652 477 |;
#X text 652 465 |;
#X text 652 453 |;
#X text 652 441 |;
#X text 652 429 |;
#X text 652 417 |;
#X text 652 405 |;
#X text 652 669 |;
#X text 652 657 |;
#X text 652 645 |;
#X text 652 633 |;
#X text 652 621 |;
#X text 652 609 |;
#X text 652 597 |;
#X text 652 585 |;
#X text 652 573 |;
#X text 288 562 |;
#X text 288 550 |;
#X text 288 538 |;
#X text 288 526 |;
#X text 288 514 |;
#X text 288 502 |;
#X text 288 490 |;
#X text 288 478 |;
#X text 288 466 |;
#X text 288 454 |;
#X text 288 442 |;
#X text 288 430 |;
#X text 288 418 |;
#X text 288 406 |;
#X text 288 670 |;
#X text 288 658 |;
#X text 288 646 |;
#X text 288 634 |;
#X text 288 622 |;
#X text 288 610 |;
#X text 288 598 |;
#X text 288 586 |;
#X text 288 574 |;
#X text 291 393 ____________________________________________________
;
#X text 291 729 ____________________________________________________
;
#X text 652 693 |;
#X text 652 681 |;
#X text 652 717 |;
#X text 652 705 |;
#X text 652 729 |;
#X text 288 694 |;
#X text 288 682 |;
#X text 288 718 |;
#X text 288 706 |;
#X text 288 729 |;
#X text 1265 107 |;
#X text 1265 95 |;
#X text 1265 83 |;
#X text 1265 71 |;
#X text 1265 59 |;
#X text 1265 47 |;
#X text 1265 35 |;
#X text 1265 23 |;
#X text 1265 11 |;
#X text 1265 -1 |;
#X text 1265 -13 |;
#X text 1265 -25 |;
#X text 1265 -37 |;
#X text 1265 -49 |;
#X text 1265 215 |;
#X text 1265 203 |;
#X text 1265 191 |;
#X text 1265 179 |;
#X text 1265 167 |;
#X text 1265 155 |;
#X text 1265 143 |;
#X text 1265 131 |;
#X text 1265 119 |;
#X text 814 -61 _________________________________________________________________
, f 65;
#X text 1265 263 |;
#X text 1265 251 |;
#X text 1265 239 |;
#X text 1265 227 |;
#X text 1265 275 |;
#X text 814 275 _________________________________________________________________
, f 68;
#X text 811 107 |;
#X text 811 95 |;
#X text 811 83 |;
#X text 811 71 |;
#X text 811 59 |;
#X text 811 47 |;
#X text 811 35 |;
#X text 811 23 |;
#X text 811 11 |;
#X text 811 -1 |;
#X text 811 -13 |;
#X text 811 -25 |;
#X text 811 -37 |;
#X text 811 -49 |;
#X text 811 215 |;
#X text 811 203 |;
#X text 811 191 |;
#X text 811 179 |;
#X text 811 167 |;
#X text 811 155 |;
#X text 811 143 |;
#X text 811 131 |;
#X text 811 119 |;
#X text 811 263 |;
#X text 811 251 |;
#X text 811 239 |;
#X text 811 227 |;
#X text 811 275 |;
#X text 759 326 |;
#X text 759 314 |;
#X text 759 302 |;
#X text 759 290 |;
#X text 759 374 |;
#X text 759 362 |;
#X text 759 350 |;
#X text 759 338 |;
#X text 759 278 |;
#X text 759 266 |;
#X text 759 254 |;
#X text 266 374 _______________________________________________________________________
, f 72;
#X text 266 241 _______________________________________________________________________
, f 72;
#X text 263 326 |;
#X text 263 314 |;
#X text 263 302 |;
#X text 263 290 |;
#X text 263 374 |;
#X text 263 362 |;
#X text 263 350 |;
#X text 263 338 |;
#X text 263 278 |;
#X text 263 266 |;
#X text 263 254 |;
#X text -246 183 ___________________________________________________________________
, f 69;
#X text 220 351 |;
#X text 220 339 |;
#X text 220 327 |;
#X text 220 315 |;
#X text 220 303 |;
#X text 220 291 |;
#X text 220 279 |;
#X text 220 267 |;
#X text 220 255 |;
#X text 220 243 |;
#X text 220 231 |;
#X text 220 219 |;
#X text 220 207 |;
#X text 220 195 |;
#X text 220 459 |;
#X text 220 447 |;
#X text 220 435 |;
#X text 220 423 |;
#X text 220 411 |;
#X text 220 399 |;
#X text 220 387 |;
#X text 220 375 |;
#X text 220 363 |;
#X text 220 483 |;
#X text 220 471 |;
#X text 220 507 |;
#X text 220 495 |;
#X text 220 615 |;
#X text 220 603 |;
#X text 220 591 |;
#X text 220 579 |;
#X text 220 567 |;
#X text 220 555 |;
#X text 220 543 |;
#X text 220 531 |;
#X text 220 519 |;
#X text 220 627 |;
#X text -246 627 ___________________________________________________________________
, f 69;
#X text -250 351 |;
#X text -250 339 |;
#X text -250 327 |;
#X text -250 315 |;
#X text -250 303 |;
#X text -250 291 |;
#X text -250 279 |;
#X text -250 267 |;
#X text -250 255 |;
#X text -250 243 |;
#X text -250 231 |;
#X text -250 219 |;
#X text -250 207 |;
#X text -250 195 |;
#X text -250 459 |;
#X text -250 447 |;
#X text -250 435 |;
#X text -250 423 |;
#X text -250 411 |;
#X text -250 399 |;
#X text -250 387 |;
#X text -250 375 |;
#X text -250 363 |;
#X text -250 483 |;
#X text -250 471 |;
#X text -250 507 |;
#X text -250 495 |;
#X text -250 615 |;
#X text -250 603 |;
#X text -250 591 |;
#X text -250 579 |;
#X text -250 567 |;
#X text -250 555 |;
#X text -250 543 |;
#X text -250 531 |;
#X text -250 519 |;
#X text -250 627 |;
#X text 830 176 Decaimento/Ataque do sequenciador, f 17;
#X text 1148 150 Decaimento/Ataque da síntese livre, f 17;
#X connect 1 0 10 0;
#X connect 1 0 11 0;
#X connect 1 0 16 0;
#X connect 1 0 18 0;
#X connect 1 0 21 0;
#X connect 1 0 30 0;
#X connect 1 0 31 0;
#X connect 1 0 29 0;
#X connect 2 0 38 0;
#X connect 3 0 39 1;
#X connect 3 0 46 1;
#X connect 3 0 47 1;
#X connect 3 0 54 1;
#X connect 4 0 109 0;
#X connect 5 0 4 0;
#X connect 6 0 60 1;
#X connect 7 0 4 0;
#X connect 8 0 7 0;
#X connect 9 0 5 0;
#X connect 10 0 95 0;
#X connect 11 0 97 0;
#X connect 12 0 14 0;
#X connect 13 0 15 0;
#X connect 14 0 5 0;
#X connect 15 0 5 0;
#X connect 16 0 115 0;
#X connect 17 0 67 0;
#X connect 18 0 116 0;
#X connect 19 0 67 0;
#X connect 20 0 25 0;
#X connect 21 0 101 0;
#X connect 22 0 26 0;
#X connect 23 0 27 0;
#X connect 24 0 28 0;
#X connect 25 0 85 0;
#X connect 26 0 86 0;
#X connect 27 0 87 0;
#X connect 28 0 88 0;
#X connect 29 0 107 0;
#X connect 30 0 99 0;
#X connect 31 0 105 0;
#X connect 32 0 35 0;
#X connect 32 1 33 1;
#X connect 32 2 81 0;
#X connect 33 0 32 0;
#X connect 34 0 33 0;
#X connect 35 0 53 0;
#X connect 35 1 34 0;
#X connect 36 0 59 0;
#X connect 37 0 39 0;
#X connect 38 0 37 0;
#X connect 38 0 45 0;
#X connect 38 0 52 0;
#X connect 39 0 41 0;
#X connect 41 0 60 0;
#X connect 42 0 46 0;
#X connect 43 0 44 0;
#X connect 44 0 47 0;
#X connect 44 0 42 0;
#X connect 45 0 43 0;
#X connect 46 0 41 1;
#X connect 47 0 41 3;
#X connect 48 0 59 1;
#X connect 49 0 50 0;
#X connect 50 0 48 0;
#X connect 50 0 59 3;
#X connect 51 0 49 0;
#X connect 52 0 55 0;
#X connect 53 0 36 0;
#X connect 53 0 51 0;
#X connect 53 0 62 0;
#X connect 54 0 41 2;
#X connect 55 0 56 0;
#X connect 56 0 57 0;
#X connect 57 0 58 0;
#X connect 58 0 54 0;
#X connect 59 0 61 0;
#X connect 60 0 121 0;
#X connect 61 0 119 0;
#X connect 62 0 63 0;
#X connect 63 0 64 0;
#X connect 64 0 65 0;
#X connect 65 0 66 0;
#X connect 66 0 59 2;
#X connect 69 0 82 0;
#X connect 70 0 69 0;
#X connect 71 0 61 1;
#X connect 72 0 69 0;
#X connect 73 0 72 0;
#X connect 74 0 70 0;
#X connect 75 0 77 0;
#X connect 76 0 78 0;
#X connect 77 0 70 0;
#X connect 78 0 70 0;
#X connect 79 0 93 0;
#X connect 83 0 71 0;
#X connect 84 0 76 0;
#X connect 84 0 12 0;
#X connect 89 0 59 0;
#X connect 90 0 59 0;
#X connect 91 0 59 0;
#X connect 92 0 59 0;
#X connect 94 0 20 0;
#X connect 96 0 76 0;
#X connect 96 0 12 0;
#X connect 98 0 13 0;
#X connect 100 0 80 0;
#X connect 100 0 15 1;
#X connect 100 0 78 1;
#X connect 102 0 20 0;
#X connect 102 0 22 0;
#X connect 102 0 23 0;
#X connect 102 0 24 0;
#X connect 104 0 75 0;
#X connect 104 0 13 0;
#X connect 106 0 32 0;
#X connect 106 0 103 0;
#X connect 108 0 14 1;
#X connect 108 0 77 1;
#X connect 110 0 6 0;
#X connect 111 0 41 0;
#X connect 112 0 41 0;
#X connect 113 0 41 0;
#X connect 114 0 41 0;
#X connect 117 0 17 0;
#X connect 117 0 79 0;
#X connect 118 0 19 0;
#X connect 120 0 0 0;
#X connect 122 0 0 0;
#X connect 128 0 12 0;
#X coords 0 672 1 671 120 60 0;
#X restore 31 356 pd synth;
#X obj 67 405 dac~;
#X obj 69 380 *~;
#X obj 119 342 hsl 115 15 0.0001 1 1 1 empty empty Volume -2 -8 0 10
-262144 -1 -1 9900 1;
#X obj 116 362 line~ 0 50;
#X text 9 3 Aluno: Carlos Eduardo Leal de Castro NUSP:11921804, f
37;
#X msg 34 223 notas 69 200 68 200 67 200 66 200 65 300 55 300 56 300
57 300 58 200 48 200 47 200 46 299 44 234 46 299 69 299, f 27;
#X connect 0 0 2 0;
#X connect 1 0 2 2;
#X connect 1 1 2 1;
#X connect 2 0 4 0;
#X connect 4 0 3 0;
#X connect 4 0 3 1;
#X connect 5 0 6 0;
#X connect 6 0 4 1;
#X connect 8 0 2 0;
